<svg width="22" height="22" viewBox="0 0 22 22" fill="none" xmlns="http://www.w3.org/2000/svg">
<path d="M7.35847 17.0758C7.35847 17.1617 7.25645 17.2305 7.12782 17.2305C6.98145 17.2434 6.87944 17.1746 6.87944 17.0758C6.87944 16.9898 6.98145 16.9211 7.11008 16.9211C7.24314 16.9082 7.35847 16.977 7.35847 17.0758ZM5.97903 16.8824C5.94798 16.9684 6.03669 17.0672 6.16976 17.093C6.28508 17.1359 6.41815 17.093 6.44476 17.007C6.47137 16.9211 6.3871 16.8223 6.25403 16.7836C6.13871 16.7535 6.01008 16.7965 5.97903 16.8824ZM7.93952 16.8094C7.81089 16.8395 7.72218 16.9211 7.73548 17.0199C7.74879 17.1059 7.86411 17.1617 7.99718 17.1316C8.12581 17.1016 8.21452 17.0199 8.20121 16.934C8.1879 16.8523 8.06814 16.7965 7.93952 16.8094ZM10.8581 0.34375C4.70605 0.34375 0 4.86836 0 10.8281C0 15.5934 3.09597 19.6711 7.51815 21.1063C8.08589 21.2051 8.28548 20.8656 8.28548 20.5863C8.28548 20.3199 8.27218 18.8504 8.27218 17.948C8.27218 17.948 5.16734 18.5926 4.51532 16.6676C4.51532 16.6676 4.00968 15.4172 3.28226 15.0949C3.28226 15.0949 2.26653 14.4203 3.35323 14.4332C3.35323 14.4332 4.45766 14.5191 5.06532 15.5418C6.03669 17.2004 7.66452 16.7234 8.29879 16.4398C8.40081 15.7523 8.68911 15.2754 9.00847 14.9918C6.52903 14.7254 4.02742 14.3773 4.02742 10.2437C4.02742 9.06211 4.36452 8.46914 5.07419 7.71289C4.95887 7.43359 4.58185 6.28203 5.18952 4.79531C6.11653 4.51602 8.25 5.95547 8.25 5.95547C9.1371 5.71484 10.0907 5.59023 11.0355 5.59023C11.9802 5.59023 12.9339 5.71484 13.821 5.95547C13.821 5.95547 15.9544 4.51172 16.8815 4.79531C17.4891 6.28633 17.1121 7.43359 16.9968 7.71289C17.7065 8.47344 18.1411 9.06641 18.1411 10.2437C18.1411 14.3902 15.5286 14.7211 13.0492 14.9918C13.4573 15.3313 13.8032 15.9758 13.8032 16.9855C13.8032 18.4336 13.7899 20.2254 13.7899 20.5777C13.7899 20.857 13.994 21.1965 14.5573 21.0977C18.9927 19.6711 22 15.5934 22 10.8281C22 4.86836 17.0101 0.34375 10.8581 0.34375ZM4.31129 15.1637C4.25363 15.2066 4.26694 15.3055 4.34234 15.3871C4.41331 15.4559 4.51532 15.4859 4.57298 15.4301C4.63064 15.3871 4.61734 15.2883 4.54194 15.2066C4.47097 15.1379 4.36895 15.1078 4.31129 15.1637ZM3.83226 14.8156C3.80121 14.8715 3.84556 14.9402 3.93427 14.9832C4.00524 15.0262 4.09395 15.0133 4.125 14.9531C4.15605 14.8973 4.11169 14.8285 4.02298 14.7855C3.93427 14.7598 3.86331 14.7727 3.83226 14.8156ZM5.26935 16.3453C5.19839 16.4012 5.225 16.5301 5.32702 16.6117C5.42903 16.7105 5.55766 16.7234 5.61532 16.6547C5.67298 16.5988 5.64637 16.4699 5.55766 16.3883C5.46008 16.2895 5.32702 16.2766 5.26935 16.3453ZM4.76371 15.7137C4.69274 15.7566 4.69274 15.8684 4.76371 15.9672C4.83468 16.066 4.95444 16.109 5.0121 16.066C5.08306 16.0102 5.08306 15.8984 5.0121 15.7996C4.95 15.7008 4.83468 15.6578 4.76371 15.7137Z" fill="black"/>
</svg>
