<svg width="24" height="24" viewBox="0 0 24 24" fill="none" xmlns="http://www.w3.org/2000/svg">
<rect width="24" height="24" rx="6" fill="url(#paint0_linear_205_29)"/>
<path d="M17.8279 12.6967C17.3761 12.8167 16.9107 12.8774 16.4433 12.8774C15.0199 12.8774 13.6833 12.324 12.6793 11.32C12.02 10.6569 11.546 9.83262 11.3045 8.92924C11.0631 8.02587 11.0627 7.07499 11.3033 6.17138C11.3333 6.0584 11.3331 5.93951 11.3027 5.82663C11.2723 5.71375 11.2127 5.61085 11.13 5.52825C11.0473 5.44565 10.9443 5.38626 10.8313 5.35604C10.7184 5.32582 10.5995 5.32582 10.4866 5.35605C9.35536 5.65751 8.3233 6.25113 7.49392 7.07738C4.89526 9.67605 4.89526 13.906 7.49392 16.506C8.11161 17.1272 8.84635 17.6196 9.65561 17.9549C10.4649 18.2902 11.3326 18.4617 12.2086 18.4594C13.0843 18.4618 13.9519 18.2905 14.7609 17.9553C15.57 17.6202 16.3045 17.1278 16.9219 16.5067C17.7488 15.6772 18.3427 14.6446 18.6439 13.5127C18.6738 13.3998 18.6736 13.281 18.6432 13.1682C18.6128 13.0554 18.5533 12.9525 18.4707 12.8699C18.3881 12.7873 18.2853 12.7278 18.1725 12.6974C18.0597 12.667 17.9409 12.6668 17.8279 12.6967ZM15.9799 15.564C15.4859 16.0608 14.8983 16.4546 14.251 16.7227C13.6038 16.9908 12.9098 17.1279 12.2093 17.126C11.5085 17.1278 10.8143 16.9906 10.1668 16.7224C9.51936 16.4541 8.93151 16.0602 8.43726 15.5634C6.35859 13.484 6.35859 10.1 8.43726 8.02072C8.83893 7.6195 9.30265 7.28566 9.81059 7.03205C9.73624 7.99142 9.86989 8.95554 10.2024 9.85851C10.5349 10.7615 11.0585 11.582 11.7373 12.264C12.4178 12.945 13.2381 13.47 14.1414 13.8027C15.0448 14.1355 16.0096 14.2681 16.9693 14.1914C16.7143 14.6985 16.3803 15.1618 15.9799 15.564Z" fill="white"/>
<defs>
<linearGradient id="paint0_linear_205_29" x1="7.5" y1="8.56817e-08" x2="19" y2="24" gradientUnits="userSpaceOnUse">
<stop stop-color="#0073DD"/>
<stop offset="1" stop-color="#A013B7"/>
</linearGradient>
</defs>
</svg>
