<svg width="24" height="24" viewBox="0 0 24 24" fill="none" xmlns="http://www.w3.org/2000/svg">
<rect width="24" height="24" rx="6" fill="url(#paint0_linear_205_27)"/>
<path d="M12 15.25C13.7949 15.25 15.25 13.7949 15.25 12C15.25 10.2051 13.7949 8.75 12 8.75C10.2051 8.75 8.75 10.2051 8.75 12C8.75 13.7949 10.2051 15.25 12 15.25Z" stroke="white" stroke-width="1.5" stroke-linecap="round" stroke-linejoin="round"/>
<path d="M6.75 17.25L7.25 16.75M16.75 16.75L17.25 17.25M16.75 7.25L17.25 6.75M7.25 7.25L6.75 6.75M6.25 12H5.25M18.75 12H17.75M12 17.75V18.75M12 5.25V6.25" stroke="white" stroke-width="1.5" stroke-linecap="round" stroke-linejoin="round"/>
<defs>
<linearGradient id="paint0_linear_205_27" x1="7.5" y1="8.56817e-08" x2="19" y2="24" gradientUnits="userSpaceOnUse">
<stop stop-color="#FFAA2B"/>
<stop offset="1" stop-color="#FF4A4A"/>
</linearGradient>
</defs>
</svg>
