<svg width="21" height="21" viewBox="0 0 21 21" fill="none" xmlns="http://www.w3.org/2000/svg">
<path d="M21 3.98706C20.2136 4.33543 19.3795 4.5641 18.5254 4.66546C19.4151 4.13226 20.0981 3.28791 20.4198 2.28188C19.5741 2.78373 18.6488 3.13732 17.684 3.32737C16.898 2.49007 15.7784 1.9668 14.5391 1.9668C12.1597 1.9668 10.2306 3.89584 10.2306 6.27508C10.2306 6.6128 10.2688 6.94158 10.3422 7.25699C6.76151 7.07726 3.5869 5.36207 1.46188 2.75545C1.0911 3.39176 0.878637 4.13193 0.878637 4.9214C0.878637 6.41617 1.63931 7.73482 2.7953 8.50748C2.11111 8.48605 1.44199 8.30126 0.843773 7.96853C0.843527 7.98658 0.843527 8.00462 0.843527 8.02275C0.843527 10.1102 2.32862 11.8516 4.2995 12.2474C3.66506 12.4199 2.99958 12.4452 2.35389 12.3212C2.9021 14.0329 4.49326 15.2784 6.3785 15.3133C4.90399 16.4688 3.04623 17.1576 1.02777 17.1576C0.679957 17.1576 0.337066 17.1372 0 17.0974C1.90665 18.3198 4.17129 19.0331 6.60434 19.0331C14.5291 19.0331 18.8626 12.468 18.8626 6.77473C18.8626 6.58786 18.8585 6.40206 18.8501 6.21733C19.6936 5.60758 20.4216 4.85234 21 3.98706" fill="white"/>
</svg>
